<svg width="19" height="19" viewBox="0 0 19 19" fill="none" xmlns="http://www.w3.org/2000/svg">
<mask id="mask0_465_21484" style="mask-type:alpha" maskUnits="userSpaceOnUse" x="0" y="0" width="19" height="19">
<rect x="0.0581055" y="0.186035" width="18.0698" height="18.0698" fill="#D9D9D9"/>
</mask>
<g mask="url(#mask0_465_21484)">
<path d="M3.82259 16.75C3.40849 16.75 3.05399 16.6026 2.75911 16.3077C2.46422 16.0128 2.31677 15.6583 2.31677 15.2442V4.70349C2.31677 4.28939 2.46422 3.9349 2.75911 3.64001C3.05399 3.34512 3.40849 3.19768 3.82259 3.19768H4.57549V2.44477C4.57549 2.23145 4.64765 2.05263 4.79195 1.90832C4.93626 1.76402 5.11508 1.69186 5.3284 1.69186C5.54172 1.69186 5.72054 1.76402 5.86485 1.90832C6.00915 2.05263 6.08131 2.23145 6.08131 2.44477V3.19768H12.1046V2.44477C12.1046 2.23145 12.1767 2.05263 12.321 1.90832C12.4653 1.76402 12.6441 1.69186 12.8575 1.69186C13.0708 1.69186 13.2496 1.76402 13.3939 1.90832C13.5382 2.05263 13.6104 2.23145 13.6104 2.44477V3.19768H14.3633C14.7774 3.19768 15.1319 3.34512 15.4268 3.64001C15.7217 3.9349 15.8691 4.28939 15.8691 4.70349V15.2442C15.8691 15.6583 15.7217 16.0128 15.4268 16.3077C15.1319 16.6026 14.7774 16.75 14.3633 16.75H3.82259ZM3.82259 15.2442H14.3633V7.71512H3.82259V15.2442ZM3.82259 6.20931H14.3633V4.70349H3.82259V6.20931ZM9.09294 10.7267C8.87961 10.7267 8.7008 10.6546 8.55649 10.5103C8.41218 10.366 8.34003 10.1872 8.34003 9.97384C8.34003 9.76052 8.41218 9.5817 8.55649 9.43739C8.7008 9.29309 8.87961 9.22093 9.09294 9.22093C9.30626 9.22093 9.48507 9.29309 9.62938 9.43739C9.77369 9.5817 9.84584 9.76052 9.84584 9.97384C9.84584 10.1872 9.77369 10.366 9.62938 10.5103C9.48507 10.6546 9.30626 10.7267 9.09294 10.7267ZM6.08131 10.7267C5.86798 10.7267 5.68917 10.6546 5.54486 10.5103C5.40055 10.366 5.3284 10.1872 5.3284 9.97384C5.3284 9.76052 5.40055 9.5817 5.54486 9.43739C5.68917 9.29309 5.86798 9.22093 6.08131 9.22093C6.29463 9.22093 6.47345 9.29309 6.61775 9.43739C6.76206 9.5817 6.83421 9.76052 6.83421 9.97384C6.83421 10.1872 6.76206 10.366 6.61775 10.5103C6.47345 10.6546 6.29463 10.7267 6.08131 10.7267ZM12.1046 10.7267C11.8912 10.7267 11.7124 10.6546 11.5681 10.5103C11.4238 10.366 11.3517 10.1872 11.3517 9.97384C11.3517 9.76052 11.4238 9.5817 11.5681 9.43739C11.7124 9.29309 11.8912 9.22093 12.1046 9.22093C12.3179 9.22093 12.4967 9.29309 12.641 9.43739C12.7853 9.5817 12.8575 9.76052 12.8575 9.97384C12.8575 10.1872 12.7853 10.366 12.641 10.5103C12.4967 10.6546 12.3179 10.7267 12.1046 10.7267ZM9.09294 13.7384C8.87961 13.7384 8.7008 13.6662 8.55649 13.5219C8.41218 13.3776 8.34003 13.1988 8.34003 12.9855C8.34003 12.7721 8.41218 12.5933 8.55649 12.449C8.7008 12.3047 8.87961 12.2326 9.09294 12.2326C9.30626 12.2326 9.48507 12.3047 9.62938 12.449C9.77369 12.5933 9.84584 12.7721 9.84584 12.9855C9.84584 13.1988 9.77369 13.3776 9.62938 13.5219C9.48507 13.6662 9.30626 13.7384 9.09294 13.7384ZM6.08131 13.7384C5.86798 13.7384 5.68917 13.6662 5.54486 13.5219C5.40055 13.3776 5.3284 13.1988 5.3284 12.9855C5.3284 12.7721 5.40055 12.5933 5.54486 12.449C5.68917 12.3047 5.86798 12.2326 6.08131 12.2326C6.29463 12.2326 6.47345 12.3047 6.61775 12.449C6.76206 12.5933 6.83421 12.7721 6.83421 12.9855C6.83421 13.1988 6.76206 13.3776 6.61775 13.5219C6.47345 13.6662 6.29463 13.7384 6.08131 13.7384ZM12.1046 13.7384C11.8912 13.7384 11.7124 13.6662 11.5681 13.5219C11.4238 13.3776 11.3517 13.1988 11.3517 12.9855C11.3517 12.7721 11.4238 12.5933 11.5681 12.449C11.7124 12.3047 11.8912 12.2326 12.1046 12.2326C12.3179 12.2326 12.4967 12.3047 12.641 12.449C12.7853 12.5933 12.8575 12.7721 12.8575 12.9855C12.8575 13.1988 12.7853 13.3776 12.641 13.5219C12.4967 13.6662 12.3179 13.7384 12.1046 13.7384Z" fill="#1C1B1F"/>
</g>
</svg>
