<svg width="81" height="81" viewBox="0 0 81 81" fill="none" xmlns="http://www.w3.org/2000/svg">
<g id="twotone-account-balance-wallet 1">
<path id="Vector" opacity="0.3" d="M43.875 57.375C40.1625 57.375 37.125 54.3375 37.125 50.625V30.375C37.125 26.6625 40.1625 23.625 43.875 23.625H64.125V16.875H16.875V64.125H64.125V57.375H43.875Z" fill="#4B1FED"/>
<path id="Vector_2" d="M70.875 24.57V16.875C70.875 13.1625 67.8375 10.125 64.125 10.125H16.875C15.0848 10.125 13.3679 10.8362 12.102 12.102C10.8362 13.3679 10.125 15.0848 10.125 16.875V64.125C10.125 65.9152 10.8362 67.6321 12.102 68.898C13.3679 70.1638 15.0848 70.875 16.875 70.875H64.125C67.8375 70.875 70.875 67.8375 70.875 64.125V56.43C71.8952 55.841 72.7435 54.9953 73.3355 53.9769C73.9276 52.9586 74.2429 51.803 74.25 50.625V30.375C74.25 27.8775 72.8662 25.7175 70.875 24.57ZM67.5 30.375V50.625H43.875V30.375H67.5ZM16.875 64.125V16.875H64.125V23.625H43.875C40.1625 23.625 37.125 26.6625 37.125 30.375V50.625C37.125 54.3375 40.1625 57.375 43.875 57.375H64.125V64.125H16.875Z" fill="#071563"/>
<path id="Vector_3" d="M54 45.5625C56.7959 45.5625 59.0625 43.2959 59.0625 40.5C59.0625 37.7041 56.7959 35.4375 54 35.4375C51.2041 35.4375 48.9375 37.7041 48.9375 40.5C48.9375 43.2959 51.2041 45.5625 54 45.5625Z" fill="black"/>
</g>
</svg>
