<svg width="26" height="25" viewBox="0 0 26 25" fill="none" xmlns="http://www.w3.org/2000/svg">
<mask id="mask0_465_22157" style="mask-type:alpha" maskUnits="userSpaceOnUse" x="0" y="0" width="26" height="25">
<rect x="0.5" width="25" height="25" fill="#D9D9D9"/>
</mask>
<g mask="url(#mask0_465_22157)">
<path d="M14.3542 17.9948C14.1459 17.7864 14.0461 17.5347 14.0548 17.2396C14.0634 16.9444 14.172 16.6927 14.3803 16.4844L17.323 13.5416H5.70841C5.41328 13.5416 5.16588 13.4418 4.96623 13.2422C4.76657 13.0425 4.66675 12.7951 4.66675 12.5C4.66675 12.2048 4.76657 11.9574 4.96623 11.7578C5.16588 11.5581 5.41328 11.4583 5.70841 11.4583H17.323L14.3542 8.48956C14.1459 8.28123 14.0417 8.03383 14.0417 7.74738C14.0417 7.46092 14.1459 7.21352 14.3542 7.00519C14.5626 6.79685 14.81 6.69269 15.0964 6.69269C15.3829 6.69269 15.6303 6.79685 15.8386 7.00519L20.6042 11.7708C20.7084 11.875 20.7822 11.9878 20.8256 12.1094C20.869 12.2309 20.8907 12.3611 20.8907 12.5C20.8907 12.6389 20.869 12.7691 20.8256 12.8906C20.7822 13.0121 20.7084 13.125 20.6042 13.2291L15.8126 18.0208C15.6216 18.2118 15.3829 18.3073 15.0964 18.3073C14.81 18.3073 14.5626 18.2031 14.3542 17.9948Z" fill="white"/>
</g>
</svg>
