<svg width="24" height="25" viewBox="0 0 24 25" fill="none" xmlns="http://www.w3.org/2000/svg">
<mask id="mask0_915_28988" style="mask-type:alpha" maskUnits="userSpaceOnUse" x="0" y="0" width="24" height="25">
<rect y="0.5" width="24" height="24" fill="#D9D9D9"/>
</mask>
<g mask="url(#mask0_915_28988)">
<path d="M18 15.5V13.5H20C20.2833 13.5 20.5208 13.5958 20.7125 13.7875C20.9042 13.9792 21 14.2167 21 14.5C21 14.7833 20.9042 15.0208 20.7125 15.2125C20.5208 15.4042 20.2833 15.5 20 15.5H18ZM18 19.5V17.5H20C20.2833 17.5 20.5208 17.5958 20.7125 17.7875C20.9042 17.9792 21 18.2167 21 18.5C21 18.7833 20.9042 19.0208 20.7125 19.2125C20.5208 19.4042 20.2833 19.5 20 19.5H18ZM14 20.5C13.45 20.5 12.9792 20.3042 12.5875 19.9125C12.1958 19.5208 12 19.05 12 18.5H10V14.5H12C12 13.95 12.1958 13.4792 12.5875 13.0875C12.9792 12.6958 13.45 12.5 14 12.5H17V20.5H14ZM7 17.5C5.9 17.5 4.95833 17.1083 4.175 16.325C3.39167 15.5417 3 14.6 3 13.5C3 12.4 3.39167 11.4583 4.175 10.675C4.95833 9.89167 5.9 9.5 7 9.5H8.5C8.91667 9.5 9.27083 9.35417 9.5625 9.0625C9.85417 8.77083 10 8.41667 10 8C10 7.58333 9.85417 7.22917 9.5625 6.9375C9.27083 6.64583 8.91667 6.5 8.5 6.5H5C4.71667 6.5 4.47917 6.40417 4.2875 6.2125C4.09583 6.02083 4 5.78333 4 5.5C4 5.21667 4.09583 4.97917 4.2875 4.7875C4.47917 4.59583 4.71667 4.5 5 4.5H8.5C9.46667 4.5 10.2917 4.84167 10.975 5.525C11.6583 6.20833 12 7.03333 12 8C12 8.96667 11.6583 9.79167 10.975 10.475C10.2917 11.1583 9.46667 11.5 8.5 11.5H7C6.45 11.5 5.97917 11.6958 5.5875 12.0875C5.19583 12.4792 5 12.95 5 13.5C5 14.05 5.19583 14.5208 5.5875 14.9125C5.97917 15.3042 6.45 15.5 7 15.5H9V17.5H7Z" fill="#1C1B1F"/>
</g>
</svg>

