<svg width="19" height="19" viewBox="0 0 19 19" fill="none" xmlns="http://www.w3.org/2000/svg">
<mask id="mask0_465_21490" style="mask-type:alpha" maskUnits="userSpaceOnUse" x="0" y="0" width="19" height="19">
<rect x="0.244141" y="0.186035" width="18.0698" height="18.0698" fill="#D9D9D9"/>
</mask>
<g mask="url(#mask0_465_21490)">
<path d="M8.48854 11.8184L11.1049 9.20208C11.2555 9.0515 11.4374 8.97621 11.6508 8.97621C11.8641 8.97621 12.046 9.0515 12.1966 9.20208C12.3472 9.35266 12.4225 9.53461 12.4225 9.74794C12.4225 9.96126 12.3472 10.1432 12.1966 10.2938L9.01558 13.4748C8.86499 13.6254 8.68932 13.7007 8.48854 13.7007C8.28777 13.7007 8.11209 13.6254 7.96151 13.4748L6.36158 11.8749C6.211 11.7243 6.13571 11.5424 6.13571 11.329C6.13571 11.1157 6.211 10.9338 6.36158 10.7832C6.51216 10.6326 6.69411 10.5573 6.90744 10.5573C7.12076 10.5573 7.30271 10.6326 7.45329 10.7832L8.48854 11.8184ZM4.00874 16.75C3.59464 16.75 3.24015 16.6025 2.94526 16.3076C2.65037 16.0128 2.50293 15.6583 2.50293 15.2442V4.70346C2.50293 4.28936 2.65037 3.93487 2.94526 3.63998C3.24015 3.34509 3.59464 3.19765 4.00874 3.19765H4.76165V2.44474C4.76165 2.23142 4.8338 2.0526 4.97811 1.90829C5.12242 1.76399 5.30123 1.69183 5.51456 1.69183C5.72788 1.69183 5.9067 1.76399 6.051 1.90829C6.19531 2.0526 6.26746 2.23142 6.26746 2.44474V3.19765H12.2907V2.44474C12.2907 2.23142 12.3629 2.0526 12.5072 1.90829C12.6515 1.76399 12.8303 1.69183 13.0436 1.69183C13.257 1.69183 13.4358 1.76399 13.5801 1.90829C13.7244 2.0526 13.7965 2.23142 13.7965 2.44474V3.19765H14.5494C14.9635 3.19765 15.318 3.34509 15.6129 3.63998C15.9078 3.93487 16.0553 4.28936 16.0553 4.70346V15.2442C16.0553 15.6583 15.9078 16.0128 15.6129 16.3076C15.318 16.6025 14.9635 16.75 14.5494 16.75H4.00874ZM4.00874 15.2442H14.5494V7.71509H4.00874V15.2442ZM4.00874 6.20928H14.5494V4.70346H4.00874V6.20928Z" fill="#1C1B1F"/>
</g>
</svg>
