<svg width="19" height="19" viewBox="0 0 19 19" fill="none" xmlns="http://www.w3.org/2000/svg">
<mask id="mask0_465_21496" style="mask-type:alpha" maskUnits="userSpaceOnUse" x="0" y="0" width="19" height="19">
<rect x="0.337158" y="0.186035" width="18.0698" height="18.0698" fill="#D9D9D9"/>
</mask>
<g mask="url(#mask0_465_21496)">
<path d="M2.78411 7.45158C2.69627 7.38884 2.64294 7.31041 2.62412 7.21629C2.60529 7.12218 2.63353 7.02493 2.70882 6.92454C3.48682 5.85793 4.46246 5.02973 5.63574 4.43995C6.80902 3.85017 8.06073 3.55528 9.39087 3.55528C10.721 3.55528 11.9758 3.84076 13.1554 4.41172C14.335 4.98267 15.32 5.80773 16.1106 6.8869C16.1984 6.99983 16.2266 7.10022 16.1953 7.18806C16.1639 7.2759 16.1106 7.35119 16.0353 7.41393C15.96 7.47668 15.8721 7.50491 15.7718 7.49863C15.6714 7.49236 15.5835 7.43903 15.5082 7.33864C14.8181 6.35986 13.9303 5.61009 12.8448 5.08933C11.7594 4.56857 10.6081 4.30819 9.39087 4.30819C8.17367 4.30819 7.03176 4.56857 5.96514 5.08933C4.89852 5.61009 4.01386 6.35986 3.31114 7.33864C3.23585 7.45158 3.14801 7.51432 3.04763 7.52687C2.94724 7.53942 2.8594 7.51432 2.78411 7.45158ZM11.5178 16.7312C10.2128 16.4049 9.14617 15.7555 8.31798 14.783C7.48978 13.8105 7.07568 12.6215 7.07568 11.2161C7.07568 10.5887 7.30155 10.0617 7.75329 9.63501C8.20504 9.20836 8.7509 8.99504 9.39087 8.99504C10.0308 8.99504 10.5767 9.20836 11.0284 9.63501C11.4802 10.0617 11.7061 10.5887 11.7061 11.2161C11.7061 11.6302 11.8629 11.9784 12.1766 12.2608C12.4903 12.5431 12.8605 12.6843 13.2872 12.6843C13.7138 12.6843 14.0777 12.5431 14.3789 12.2608C14.68 11.9784 14.8306 11.6302 14.8306 11.2161C14.8306 9.76049 14.2973 8.53702 13.2307 7.54569C12.1641 6.55436 10.8904 6.0587 9.40969 6.0587C7.92897 6.0587 6.65531 6.55436 5.58869 7.54569C4.52207 8.53702 3.98876 9.75422 3.98876 11.1973C3.98876 11.4985 4.01699 11.8749 4.07346 12.3267C4.12993 12.7784 4.26483 13.3054 4.47815 13.9078C4.51579 14.0207 4.51266 14.1211 4.46874 14.2089C4.42482 14.2968 4.35267 14.3595 4.25228 14.3971C4.15189 14.4348 4.05464 14.4317 3.96053 14.3877C3.86641 14.3438 3.80053 14.2717 3.76289 14.1713C3.57466 13.6819 3.43977 13.1956 3.3582 12.7125C3.27664 12.2294 3.23585 11.7306 3.23585 11.2161C3.23585 9.54717 3.84132 8.14802 5.05224 7.01866C6.26317 5.8893 7.70938 5.32462 9.39087 5.32462C11.0849 5.32462 12.5405 5.8893 13.7577 7.01866C14.9749 8.14802 15.5835 9.54717 15.5835 11.2161C15.5835 11.8435 15.3608 12.3674 14.9153 12.7878C14.4699 13.2082 13.9271 13.4184 13.2872 13.4184C12.6472 13.4184 12.0982 13.2082 11.6402 12.7878C11.1822 12.3674 10.9531 11.8435 10.9531 11.2161C10.9531 10.802 10.7994 10.4538 10.492 10.1715C10.1846 9.88911 9.81752 9.74794 9.39087 9.74794C8.96422 9.74794 8.59718 9.88911 8.28974 10.1715C7.9823 10.4538 7.82859 10.802 7.82859 11.2161C7.82859 12.4333 8.18935 13.4497 8.91089 14.2654C9.63243 15.081 10.5641 15.652 11.7061 15.9782C11.819 16.0159 11.8943 16.0786 11.9319 16.1665C11.9696 16.2543 11.9758 16.3484 11.9508 16.4488C11.9257 16.5367 11.8755 16.6119 11.8002 16.6747C11.7249 16.7374 11.6308 16.7563 11.5178 16.7312ZM5.23106 3.51764C5.13067 3.58038 5.03028 3.59607 4.92989 3.5647C4.82951 3.53333 4.75422 3.46745 4.70402 3.36706C4.65383 3.26667 4.64128 3.17569 4.66638 3.09413C4.69147 3.01256 4.75422 2.94041 4.8546 2.87767C5.55732 2.50122 6.2914 2.2126 7.05686 2.01183C7.82231 1.81105 8.60032 1.71066 9.39087 1.71066C10.194 1.71066 10.9782 1.80791 11.7437 2.00241C12.5092 2.19692 13.2495 2.47612 13.9648 2.84002C14.0777 2.90277 14.1436 2.97806 14.1624 3.0659C14.1812 3.15373 14.1718 3.24157 14.1342 3.32941C14.0965 3.41725 14.0338 3.48627 13.946 3.53646C13.8581 3.58666 13.7515 3.58038 13.626 3.51764C12.9609 3.17883 12.2739 2.91845 11.5649 2.7365C10.8559 2.55455 10.1312 2.46357 9.39087 2.46357C8.66306 2.46357 7.9478 2.54827 7.24508 2.71768C6.54237 2.88708 5.87103 3.15373 5.23106 3.51764ZM7.45213 16.4676C6.71177 15.6896 6.14396 14.8959 5.74868 14.0866C5.3534 13.2772 5.15577 12.3204 5.15577 11.2161C5.15577 10.0742 5.56986 9.11111 6.39806 8.32683C7.22626 7.54255 8.22386 7.15042 9.39087 7.15042C10.5579 7.15042 11.5617 7.54255 12.4025 8.32683C13.2432 9.11111 13.6636 10.0742 13.6636 11.2161C13.6636 11.329 13.6291 11.42 13.5601 11.489C13.4911 11.5581 13.4001 11.5926 13.2872 11.5926C13.1868 11.5926 13.0989 11.5581 13.0236 11.489C12.9484 11.42 12.9107 11.329 12.9107 11.2161C12.9107 10.275 12.5625 9.48756 11.866 8.85387C11.1696 8.22017 10.3446 7.90332 9.39087 7.90332C8.43719 7.90332 7.6184 8.22017 6.93451 8.85387C6.25062 9.48756 5.90867 10.275 5.90867 11.2161C5.90867 12.2325 6.08435 13.0952 6.43571 13.8042C6.78706 14.5132 7.30155 15.2253 7.97917 15.9406C8.05446 16.0159 8.0921 16.1037 8.0921 16.2041C8.0921 16.3045 8.05446 16.3923 7.97917 16.4676C7.90388 16.5429 7.81604 16.5806 7.71565 16.5806C7.61526 16.5806 7.52742 16.5429 7.45213 16.4676ZM13.1366 15.1877C12.0198 15.1877 11.0504 14.8112 10.2285 14.0583C9.40655 13.3054 8.99559 12.358 8.99559 11.2161C8.99559 11.1157 9.0301 11.0279 9.09912 10.9526C9.16813 10.8773 9.25911 10.8397 9.37205 10.8397C9.48498 10.8397 9.57596 10.8773 9.64497 10.9526C9.71399 11.0279 9.7485 11.1157 9.7485 11.2161C9.7485 12.1572 10.0873 12.929 10.7649 13.5313C11.4425 14.1336 12.2331 14.4348 13.1366 14.4348C13.2119 14.4348 13.3185 14.4285 13.4566 14.416C13.5946 14.4034 13.7389 14.3846 13.8895 14.3595C14.0024 14.3344 14.0997 14.3501 14.1812 14.4066C14.2628 14.463 14.3161 14.5477 14.3412 14.6607C14.3663 14.7611 14.3475 14.8489 14.2848 14.9242C14.222 14.9995 14.1405 15.0497 14.0401 15.0748C13.8142 15.1375 13.6166 15.172 13.4472 15.1783C13.2778 15.1846 13.1742 15.1877 13.1366 15.1877Z" fill="#1C1B1F"/>
</g>
</svg>
