<svg width="55" height="69" viewBox="0 0 55 69" fill="none" xmlns="http://www.w3.org/2000/svg">
<path d="M34.25 0.750061H7.25C3.5375 0.750061 0.533751 3.78756 0.533751 7.50006L0.5 61.5001C0.5 65.2126 3.50375 68.2501 7.21625 68.2501H47.75C51.4625 68.2501 54.5 65.2126 54.5 61.5001V21.0001L34.25 0.750061ZM47.75 53.3326L41.54 47.1226C45.86 40.5751 45.1513 31.6988 39.38 25.9276C36.1063 22.6538 31.82 21.0001 27.5 21.0001C23.18 21.0001 18.8938 22.6538 15.5863 25.9276C9.005 32.5088 9.005 43.1738 15.5863 49.7213C18.86 52.9951 23.18 54.6488 27.5 54.6488C30.74 54.6488 33.98 53.7038 36.7812 51.8476L46.4 61.5001H7.25V7.50006H30.875L47.75 24.3751V53.3326ZM37.5912 37.8413C37.5912 40.5413 36.545 43.0726 34.6213 44.9626C32.7312 46.8526 30.2 47.9326 27.5 47.9326C24.8 47.9326 22.2688 46.8863 20.3788 44.9626C18.4888 43.0726 17.4088 40.5413 17.4088 37.8413C17.4088 35.1413 18.455 32.6101 20.3788 30.7201C22.3025 28.8301 24.8 27.7501 27.5 27.7501C30.2 27.7501 32.7312 28.7963 34.6213 30.7201C36.545 32.6101 37.5912 35.1413 37.5912 37.8413Z" fill="#071563"/>
</svg>
