<svg width="81" height="82" viewBox="0 0 81 82" fill="none" xmlns="http://www.w3.org/2000/svg">
<g clip-path="url(#clip0_465_22058)">
<path opacity="0.3" d="M20.25 14.0001V68.0001H59.4L49.7812 58.3813C46.98 60.2376 43.74 61.1826 40.5 61.1826C36.18 61.1826 31.8938 59.5288 28.5863 56.2551C22.005 49.6738 22.005 39.0088 28.5863 32.4613C31.8938 29.1538 36.18 27.5001 40.5 27.5001C44.82 27.5001 49.1062 29.1538 52.4137 32.4276C58.185 38.1988 58.8937 47.0751 54.5737 53.6226L60.75 59.8326V30.8751L43.875 14.0001H20.25Z" fill="#4B1FED"/>
<path d="M47.25 7.25006H20.25C16.5375 7.25006 13.5338 10.2876 13.5338 14.0001L13.5 68.0001C13.5 71.7126 16.5037 74.7501 20.2162 74.7501H60.75C64.4625 74.7501 67.5 71.7126 67.5 68.0001V27.5001L47.25 7.25006ZM60.75 59.8326L54.54 53.6226C58.86 47.0751 58.1513 38.1988 52.38 32.4276C49.1063 29.1538 44.82 27.5001 40.5 27.5001C36.18 27.5001 31.8938 29.1538 28.5863 32.4276C22.005 39.0088 22.005 49.6738 28.5863 56.2213C31.86 59.4951 36.18 61.1488 40.5 61.1488C43.74 61.1488 46.98 60.2038 49.7812 58.3476L59.4 68.0001H20.25V14.0001H43.875L60.75 30.8751V59.8326ZM50.5912 44.3413C50.5912 47.0413 49.545 49.5726 47.6213 51.4626C45.7312 53.3526 43.2 54.4326 40.5 54.4326C37.8 54.4326 35.2688 53.3863 33.3788 51.4626C31.4888 49.5726 30.4088 47.0413 30.4088 44.3413C30.4088 41.6413 31.455 39.1101 33.3788 37.2201C35.3025 35.3301 37.8 34.2501 40.5 34.2501C43.2 34.2501 45.7312 35.2963 47.6213 37.2201C49.545 39.1101 50.5912 41.6413 50.5912 44.3413Z" fill="#071563"/>
</g>
<defs>
<clipPath id="clip0_465_22058">
<rect width="81" height="81" fill="white" transform="translate(0 0.500061)"/>
</clipPath>
</defs>
</svg>
