<svg width="19" height="19" viewBox="0 0 19 19" fill="none" xmlns="http://www.w3.org/2000/svg">
<mask id="mask0_465_21502" style="mask-type:alpha" maskUnits="userSpaceOnUse" x="0" y="0" width="19" height="19">
<rect x="0.430176" y="0.186035" width="18.0698" height="18.0698" fill="#D9D9D9"/>
</mask>
<g mask="url(#mask0_465_21502)">
<path d="M11.1591 16.2983C10.8705 16.5869 10.5128 16.7312 10.0862 16.7312C9.65954 16.7312 9.30191 16.5869 9.0133 16.2983L2.38772 9.67268C2.24969 9.53465 2.13989 9.37152 2.05832 9.18329C1.97676 8.99506 1.93597 8.79429 1.93597 8.58096V3.19768C1.93597 2.78358 2.08342 2.42909 2.37831 2.1342C2.6732 1.83931 3.02769 1.69186 3.44179 1.69186H8.82507C9.0384 1.69186 9.23917 1.73265 9.4274 1.81421C9.61563 1.89578 9.77876 2.00558 9.91679 2.14361L16.5424 8.78801C16.831 9.07663 16.9753 9.43112 16.9753 9.85149C16.9753 10.2719 16.831 10.6264 16.5424 10.915L11.1591 16.2983ZM10.0862 15.2442L15.4695 9.8609L8.82507 3.19768H3.44179V8.58096L10.0862 15.2442ZM5.32406 6.20931C5.63777 6.20931 5.90442 6.09951 6.12402 5.87991C6.34362 5.66031 6.45342 5.39366 6.45342 5.07995C6.45342 4.76623 6.34362 4.49958 6.12402 4.27998C5.90442 4.06038 5.63777 3.95058 5.32406 3.95058C5.01034 3.95058 4.74369 4.06038 4.52409 4.27998C4.30449 4.49958 4.19469 4.76623 4.19469 5.07995C4.19469 5.39366 4.30449 5.66031 4.52409 5.87991C4.74369 6.09951 5.01034 6.20931 5.32406 6.20931Z" fill="#1C1B1F"/>
</g>
</svg>
